#!OML:ASF E:\Steps\Project 1\Capture day 1\Session 2\Subject.ASF
:FULLY-SPECIFIED
:DEGREES
523
root 8.97393 16.3742 2.58859 -151.103 0.0200733 179.556
lowerback -25.9047 -1.8869 -5.29518
upperback -4.5329 -2.11044 0.241272
thorax 9.49697 -1.61491 2.53492
lowerneck -7.03567 -1.40384 -0.221402
upperneck 12.644 -1.78705 1.29937
head 4.967 -0.695552 0.334945
rclavicle 5.31749e-015 -8.74653e-015
rhumerus -32.1907 -18.8402 -80.8904
rradius 25.3886
rwrist 4.98803
rhand -9.59113 -54.1807
rfingers 7.12502
rthumb 16.3773 -803.509
lclavicle 5.31749e-015 -8.74653e-015
lhumerus -28.3101 11.9121 78.9707
lradius 11.8021
lwrist -21.7285
lhand -23.2308 -10.3588
lfingers 7.12502
lthumb 3.22024 19.5966
rfemur -27.5117 7.67505 16.0905
rtibia 8.87557
rfoot -18.7852 -9.78342
rtoes -25.5153
lfemur -27.4453 -5.5248 -19.3101
ltibia 8.76344
lfoot -8.1291 2.96933
ltoes -25.8916
524
root 8.97283 16.3715 2.58683 -151.034 -0.0437478 179.614
lowerback -26.089 -1.8726 -5.26398
upperback -4.5347 -2.0983 0.25406
thorax 9.58832 -1.6132 2.53017
lowerneck -7.02609 -1.39861 -0.352648
upperneck 12.627 -1.77706 1.39817
head 4.96213 -0.690827 0.387732
rclavicle 8.44835e-016 -3.97569e-016
rhumerus -31.7189 -18.6356 -81.2621
rradius 25.6521
rwrist 4.66314
rhand -9.05891 -54.2915
rfingers 7.12502
rthumb 16.8897 -803.577
lclavicle 8.44835e-016 -3.97569e-016
lhumerus -28.076 9.99042 80.1405
lradius 12.6469
lwrist -19.3743
lhand -23.0563 -10.1886
lfingers 7.12502
lthumb 3.38876 19.7642
rfemur -27.4671 7.52899 16.1963
rtibia 8.70317
rfoot -18.7655 -9.6731
rtoes -25.205
lfemur -27.4961 -5.45609 -19.2548
ltibia 8.73117
lfoot -8.09049 2.9024
ltoes -26.1063
525
root 8.97262 16.3698 2.58272 -151.041 -0.0666635 179.669
lowerback -26.2484 -1.8456 -5.24595
upperback -4.50322 -2.05705 0.244564
thorax 9.70167 -1.59579 2.51844
lowerneck -6.98119 -1.39581 -0.386145
upperneck 12.6023 -1.77714 1.46873
head 4.94786 -0.68789 0.415394
rclavicle -1.31198e-014 3.97569e-016
rhumerus -31.2466 -18.5469 -81.6154
rradius 25.8941
rwrist 4.52477
rhand -9.1051 -54.3628
rfingers 7.12502
rthumb 16.8453 -803.652
lclavicle -1.31198e-014 3.97569e-016
lhumerus -27.4499 8.70708 80.9806
lradius 12.9636
lwrist -17.7908
lhand -22.931 -10.024
lfingers 7.12502
lthumb 3.50974 19.9269
rfemur -27.4281 7.62044 16.2473
rtibia 8.66015
rfoot -18.7637 -9.75029
rtoes -25.3832
lfemur -27.4497 -5.42442 -19.1945
ltibia 8.71257
lfoot -8.09195 2.8887
ltoes -25.8859
526
root 8.97205 16.3682 2.57876 -151.07 -0.0640599 179.683
lowerback -26.3063 -1.80515 -5.25034
upperback -4.51192 -2.0009 0.207597
thorax 9.71524 -1.57112 2.4973
lowerneck -6.89222 -1.40183 -0.411376
upperneck 12.5896 -1.78793 1.54083
head 4.9299 -0.688785 0.441834
rclavicle 2.13694e-015 -2.38542e-015
rhumerus -30.8383 -18.3703 -81.99
rradius 26.1404
rwrist 4.16233
rhand -8.93764 -54.821
rfingers 7.12502
rthumb 17.0065 -804.097
lclavicle 2.13694e-015 -2.38542e-015
lhumerus -26.8756 7.46709 81.7406
lradius 13.2725
lwrist -16.3441
lhand -22.7413 -9.80002
lfingers 7.12502
lthumb 3.69293 20.1477
rfemur -27.3819 7.61168 16.2862
rtibia 8.62663
rfoot -18.7131 -9.72866
rtoes -25.9336
lfemur -27.3738 -5.42456 -19.1868
ltibia 8.66783
lfoot -8.0948 2.88068
ltoes -26.0424
527
root 8.97037 16.3679 2.57657 -150.984 -0.112994 179.684
lowerback -26.4205 -1.76443 -5.21499
upperback -4.58586 -1.96871 0.155923
thorax 9.68382 -1.56114 2.42769
lowerneck -6.76845 -1.41038 -0.452687
upperneck 12.5748 -1.80018 1.62273
head 4.90565 -0.690223 0.474096
rclavicle -1.10325e-014 -1.27222e-014
rhumerus -30.6539 -17.6746 -82.5409
rradius 26.8076
rwrist 3.21435
rhand -8.2566 -55.2738
rfingers 7.12502
rthumb 17.6619 -804.492
lclavicle -1.10325e-014 -1.27222e-014
lhumerus -26.6347 5.72341 82.6091
lradius 13.9384
lwrist -14.337
lhand -22.6771 -9.92032
lfingers 7.12502
lthumb 3.75493 20.0263
rfemur -27.4342 7.45008 16.3393
rtibia 8.57386
rfoot -18.6366 -9.67727
rtoes -26.383
lfemur -27.4658 -5.5519 -19.149
ltibia 8.67822
lfoot -8.11304 2.93909
ltoes -26.2414
528
root 8.96992 16.3685 2.57672 -150.895 -0.176987 179.725
lowerback -26.5201 -1.7069 -5.15441
upperback -4.65605 -1.92164 0.115076
thorax 9.6479 -1.54278 2.3613
lowerneck -6.70774 -1.4172 -0.483762
upperneck 12.5594 -1.8136 1.70418
head 4.8918 -0.692464 0.504007
rclavicle 5.96354e-016 -3.18055e-015
rhumerus -30.5558 -16.8595 -83.0678
rradius 27.5139
rwrist 2.25877
rhand -7.81437 -54.7074
rfingers 7.12502
rthumb 18.0874 -803.886
lclavicle 5.96354e-016 -3.18055e-015
lhumerus -26.4593 3.87091 83.4783
lradius 14.7522
lwrist -12.2647
lhand -22.7089 -10.2
lfingers 7.12502
lthumb 3.72419 19.7472
rfemur -27.5123 7.3814 16.4102
rtibia 8.55979
rfoot -18.6008 -9.6879
rtoes -26.4864
lfemur -27.59 -5.6737 -19.0382
ltibia 8.73387
lfoot -8.12753 3.03695
ltoes -26.0516
